<svg width="188" height="56" viewBox="0 0 188 56" fill="none" xmlns="http://www.w3.org/2000/svg">
<path d="M131.682 27.5146C130.521 27.5146 129.579 28.4685 129.579 29.6333C129.536 30.7982 130.441 31.7766 131.603 31.8213C132.765 31.8646 133.74 30.955 133.784 29.7906C133.785 29.7383 133.785 29.6851 133.784 29.6338C133.783 28.4666 132.843 27.5146 131.682 27.5146ZM58.8098 29.5279C58.8098 29.5279 59.858 25.9924 60.0194 25.4391C60.4412 24.0012 61.077 21.7374 61.077 21.7374H61.1797C61.1797 21.7374 61.7629 24.0836 62.1453 25.4179C62.2945 25.9382 63.2967 29.5279 63.2967 29.5279H58.8098ZM65.1964 35.9453H68.9917L63.2582 18.3065C62.5619 18.0838 61.8347 17.9722 61.1051 17.9755C60.2371 17.9755 59.9288 18.0908 59.2466 18.3079L53.1669 35.9481H56.8026C56.8026 35.9481 57.2911 34.4033 57.8879 32.4833H64.1736L65.1979 35.9458H65.1964V35.9453ZM188 35.9453C188 35.9453 186.202 32.085 185.763 31.2116C185.266 30.2195 184.809 29.5363 183.793 29.2929V29.2336C184.474 29.1069 185.013 28.6926 185.599 27.4308C186.161 26.1962 186.328 25.9335 186.659 25.6416C186.982 25.3464 187.423 25.4603 187.423 25.4603L187.59 23.1631C187.081 23.1076 186.569 23.0967 186.058 23.1306C185.168 23.1867 184.702 23.4409 184.265 23.8896C183.925 24.2296 183.689 24.7395 183.398 25.336C183.09 25.9735 182.846 26.4872 182.536 27.1365C182.22 27.8037 182.065 28.1008 181.211 28.1008H180.66V23.3331H177.349V35.9481H180.66V30.7906L181.109 30.7817C182.051 30.7817 182.21 31.0185 182.709 32.0186C183.297 33.214 184.409 35.9481 184.409 35.9481H187.996L188 35.9453ZM174.477 35.9453V23.3284H171.182V28.0993H167.451V23.3284H164.158V35.9453H167.451V30.7939H171.18V35.9453H174.477ZM83.9246 23.2149L83.9139 35.2824C85.4767 35.9481 87.1954 36.2452 88.717 36.2452C92.2167 36.2452 94.0882 34.4259 94.0882 31.4248C94.0882 28.7091 92.4306 27.0291 89.3316 27.0291C88.5476 27.0291 88.0864 27.1323 87.2216 27.3432V23.2135H83.9275L83.9246 23.2149ZM90.6786 31.5774C90.6786 32.8228 90.2456 33.6764 88.6658 33.6764C88.1295 33.6764 87.9104 33.6764 87.2184 33.48V29.8414C88.0775 29.6743 88.1535 29.6456 88.6621 29.6456C90.1766 29.6456 90.6786 30.3862 90.6786 31.5797V31.5774ZM162.434 34.7376C161.561 33.4038 161.337 32.6184 161.337 30.9437V27.5456C161.337 25.7108 161.13 25.0361 160.644 24.3642C159.975 23.4197 158.862 23.012 156.805 23.012C155.351 23.012 153.93 23.1688 152.568 23.5172L153.054 25.9528C153.979 25.8196 154.952 25.7089 155.645 25.7089C157.823 25.7089 158.072 26.0291 158.072 27.6723V28.2919C157.532 28.1408 156.971 28.0645 156.41 28.065C153.115 28.065 151.383 29.6837 151.383 32.3514C151.383 34.8615 153.236 36.2306 155.506 36.2306C156.35 36.2306 157.228 36.072 157.923 35.7881C158.345 35.6035 158.526 35.498 159.072 35.1383C159.4 35.6228 160.06 36.1125 160.328 36.2019L162.437 34.7357L162.434 34.7376ZM158.245 33.2818C157.524 33.5323 157.048 33.5916 156.471 33.5916C155.291 33.5916 154.628 33.1231 154.628 31.9065C154.628 30.6395 155.473 30.211 157.107 30.211C157.504 30.211 157.895 30.2699 158.074 30.3353V31.2464C158.074 32.2253 158.128 32.8665 158.246 33.2832L158.245 33.2818ZM126.084 34.7357C125.216 33.4038 124.988 32.6179 124.988 30.9446V27.5442C124.988 25.7094 124.78 25.0347 124.297 24.3628C123.628 23.4193 122.512 23.0106 120.457 23.0106C119.006 23.0106 117.581 23.1674 116.219 23.5158L116.707 25.9514C117.633 25.8186 118.598 25.7075 119.296 25.7075C121.479 25.7075 121.731 26.0277 121.731 27.6709V28.2905C121.245 28.1577 120.702 28.0636 120.064 28.0636C116.769 28.0636 115.032 29.6799 115.032 32.35C115.032 34.8591 116.886 36.2288 119.158 36.2288C120.002 36.2288 120.883 36.0715 121.578 35.7862C121.997 35.6016 122.181 35.4966 122.724 35.1378C123.054 35.6204 123.71 36.1106 123.979 36.1982L126.088 34.7339L126.084 34.7357ZM121.898 33.2818C121.174 33.5323 120.699 33.5916 120.126 33.5916C118.949 33.5916 118.277 33.1231 118.277 31.9065C118.277 30.6395 119.121 30.211 120.756 30.211C121.147 30.211 121.544 30.2699 121.729 30.3353V31.2464C121.729 32.2253 121.776 32.8665 121.898 33.2832V33.2818ZM81.3131 35.9453V23.7893C79.5049 23.246 78.1161 23.011 76.2989 23.011C74.4869 23.011 73.1276 23.2446 71.3184 23.7879V30.0123C71.3184 31.7045 71.2898 32.2121 71.1078 32.7568C70.9276 33.2385 70.6808 33.8153 70.0197 34.2607L70.9159 36.2024C73.5649 35.45 74.5591 34.2908 74.5591 30.6094V26.0296C75.4328 25.9015 75.605 25.8718 76.3017 25.8718C77.0046 25.8718 77.1509 25.9015 78.0227 26.0296V35.9458H81.3178H81.3131V35.9453ZM106.248 40.0797V35.5475C106.665 35.7942 107.497 36.1614 108.9 36.1614C111.689 36.1614 113.746 33.8294 113.746 29.5627C113.746 24.9683 111.7 23.0021 108.347 23.0021C107.495 23.0021 106.936 23.0906 106.245 23.4221V18.0042H102.967V23.4216C102.279 23.0906 101.72 23.0016 100.867 23.0016C97.511 23.0016 95.4686 25.0488 95.4686 29.6418C95.4686 33.9071 97.3163 36.1628 100.309 36.1628C101.72 36.1628 102.551 35.7942 102.971 35.547V40.0821H106.25L106.248 40.0797ZM98.8482 29.6427C98.8482 27.1087 99.604 25.7692 101.117 25.7692C101.754 25.7692 102.178 25.765 102.966 26.144V33.1104C102.249 33.3468 101.911 33.376 101.275 33.376C99.5543 33.376 98.8463 31.963 98.8463 29.6423H98.8482V29.6427ZM110.362 29.5627C110.362 31.883 109.445 33.3797 107.935 33.3797C107.299 33.3797 106.966 33.3468 106.245 33.1114V26.1463C107.031 25.7673 107.457 25.7715 108.092 25.7715C109.606 25.7715 110.362 27.0306 110.362 29.5655V29.5627ZM150.126 30.4705C150.126 27.3432 148.306 25.1896 144.484 25.1896C143.545 25.1896 142.89 25.2781 141.875 25.5206L141.871 21.0189C142.5 20.9304 143.576 20.8499 144.768 20.8499C145.892 20.8499 147.316 20.9116 148.564 21.0656L148.652 18.4571C147.233 18.1365 145.17 17.9397 143.573 17.9397C142 17.9397 139.549 18.3385 138.382 18.6549V35.2861C140.2 35.9561 141.976 36.2594 143.794 36.2594C147.964 36.2594 150.126 34.0394 150.126 30.4672V30.4705ZM146.622 30.7214C146.622 32.4065 145.693 33.5163 143.988 33.5163C143.312 33.5163 142.758 33.5163 141.876 33.2757V28.1728C142.266 28.1092 143.071 27.9812 143.988 28.0165C145.722 28.0829 146.622 28.8993 146.622 30.7214ZM17.8317 8.85685L12.9 23.755H22.8398L17.8931 8.85685H17.8317ZM0.553739 48.5255C0.244542 48.5298 -0.00365942 48.7849 9.41042e-05 49.0948V55.4303C-0.00553618 55.7406 0.242196 55.9958 0.550455 56C0.551862 56 0.551862 56 0.553739 56H35.1678C35.4756 55.9939 35.7214 55.7406 35.7167 55.4303V49.0948C35.7228 48.7864 35.4784 48.5316 35.1692 48.5255H0.553739ZM17.8617 0C21.6485 0 22.8398 2.73084 23.8331 5.46497C24.2568 6.62039 34.0966 33.7428 34.3918 34.5559C34.4734 34.7809 34.4213 35.1553 34.0722 35.2885C33.7232 35.4208 28.6094 37.4247 28.3284 37.5311C28.0408 37.6309 27.7278 37.4821 27.6213 37.1968C27.5191 36.9133 25.3978 31.0016 25.1595 30.341H10.5817C10.3401 31.0011 8.1992 36.9228 8.10067 37.1954C8.00167 37.4637 7.69763 37.6464 7.39876 37.5268C7.0966 37.4058 1.96037 35.4039 1.65634 35.2824C1.36872 35.1684 1.22468 34.844 1.33119 34.5531C1.6934 33.5337 11.3841 6.8511 11.8791 5.46167C12.8423 2.77509 14.0782 0 17.8617 0Z" fill="black"/>
</svg>
