<svg width="116" height="77" viewBox="0 0 116 77" fill="none" xmlns="http://www.w3.org/2000/svg">
<path d="M38.4452 49.9277L34.3742 43.5753H30.3015V49.9277H24.9649V28.0043H34.3431C39.6781 28.0043 43.2449 30.9726 43.2449 35.7078C43.2449 38.5812 41.8868 40.8991 39.616 42.2529L44.6645 49.9277H38.4452ZM30.3015 38.6761H34.2484C36.3013 38.6761 37.9088 37.5166 37.9088 35.7089C37.9088 33.9376 36.3013 32.8085 34.2484 32.8085H30.3015V38.6761ZM52.6138 32.7439V36.7436H62.1473V41.3822H52.6138V45.1859H63.5038V49.9277H47.2789V28.0043H63.5038V32.7439H52.6138ZM87.2919 38.9036C87.2919 45.4117 82.4655 49.9272 75.7098 49.9272H67.088V28.0037H75.7098C82.4655 28.0043 87.2919 32.4838 87.2919 38.9036ZM81.8965 38.9036C81.8965 35.5162 79.2118 32.9046 75.7104 32.9046H72.4251V45.0252H75.7104C79.2118 45.0252 81.8965 42.3832 81.8965 38.9036ZM90.2281 49.9277V28.0043H95.5641V49.9277H90.2281ZM115.996 32.8742H109.84V49.9277H104.536V32.8731H98.3811V28.0026H116V32.8731L115.996 32.8742ZM16.269 42.0365H21.9198C20.8094 47.0439 16.7814 50.3452 11.3637 50.3452C4.89278 50.3452 0 45.5741 0 38.9649C0 32.3552 4.89114 27.5846 11.3637 27.5846C16.7803 27.5846 20.8132 30.8859 21.9198 35.895H16.269C15.4467 33.8769 13.7297 32.6782 11.3299 32.6782C7.82736 32.6782 5.39649 35.3208 5.39649 38.9649C5.39649 42.6091 7.82736 45.2533 11.3299 45.2533C13.7297 45.2533 15.4472 44.0579 16.269 42.0365ZM20.0236 70.8977C20.0236 74.5457 17.1441 77 12.3074 77H1.49207V55.0428H11.6741C16.3539 55.0428 19.0729 57.3033 19.0729 60.8867C19.0729 62.9225 17.9625 65.0217 16.1023 65.6992C18.7249 66.279 20.0236 68.5378 20.0236 70.8977ZM6.83573 59.4986V64.0848H10.854C12.8759 64.0848 13.984 63.0517 13.984 61.6305C13.984 60.2413 12.9075 59.4986 10.854 59.4986H6.83573ZM14.8058 70.1871C14.8058 68.831 13.6976 68.0536 11.7073 68.0536H6.83627V72.4796H11.6093C13.825 72.4796 14.802 71.4785 14.802 70.1871H14.8058ZM36.5284 73.2217H27.4257L25.999 76.9994H20.3101L29.4465 55.0423H34.5696L43.6762 76.9994H37.984L36.5284 73.2217ZM34.7913 68.6692L31.9738 61.2754L29.1606 68.6681H34.7913V68.6692ZM65.2158 55.0412V76.9967H61.1028L50.7956 64.9538V76.9967H45.4525V55.0428H49.5317L59.9016 67.4087V55.0428H65.2153V55.0412H65.2158ZM78.1445 68.7979L74.984 72.5409V76.9967H69.6403V55.0428H74.984V65.1178L83.5524 55.0428H89.8779L81.6884 64.6667L90.5739 77H83.9026L78.144 68.8001V68.7979H78.1445ZM20.6537 0.963491V22.8886H15.3481V14.6661H6.60375V22.8886H1.26934V0.963491H6.60375V9.76799H15.3481V0.963491H20.6537ZM81.9929 22.8886H76.6574V11.8954L71.8893 19.4041V19.4366H68.9242V19.4029L64.1267 11.8297L64.155 22.8886H58.8223V0.963491H62.8007L70.4081 12.6684L78.0176 0.96735H81.9934V22.8886H81.9929ZM91.7539 5.70366V9.70341H101.291V14.3453H91.7539V18.1457H102.646V22.8892H86.4211V0.964047H102.646V5.70421H91.7539V5.70366ZM39.7358 0C48.2286 0 55.1073 6.69476 55.1073 14.9571C55.109 17.7752 54.2971 20.5321 52.7707 22.8886H45.3577C47.6993 21.0831 49.0726 18.2721 49.0688 15.29C49.0688 10.0275 44.891 5.76108 39.7358 5.76108C34.5811 5.76108 30.4033 10.0281 30.4033 15.29C30.4033 18.3958 31.8649 21.1461 34.1177 22.8886H26.7015C25.1762 20.5321 24.3621 17.7752 24.3642 14.9571C24.3648 6.69421 31.2501 0 39.7358 0ZM34.6944 17.4047H44.7772C44.0573 19.5956 42.0735 21.1715 39.7358 21.1715C37.4002 21.1715 35.4175 19.5956 34.6944 17.4047Z" fill="black"/>
</svg>
