<svg width="207" height="47" viewBox="0 0 207 47" fill="none" xmlns="http://www.w3.org/2000/svg">
<path d="M83.5023 13.3294V16.0227H77.8236V32.5449H74.6844V16.0209H69.0577V13.3294H83.5023ZM93.4864 32.1022L93.4895 32.1048C92.5441 32.5828 91.5003 32.8258 90.4422 32.8094C88.5164 32.8094 86.955 32.167 85.7595 30.8887C84.5631 29.6091 83.9658 27.9036 83.9658 25.7735V25.3793C83.9426 24.0617 84.209 22.7579 84.7459 21.5577C85.2182 20.4937 85.9803 19.5849 86.9427 18.9385C87.8754 18.3164 88.9721 17.9901 90.0906 18.0007C91.9354 18.0007 93.3574 18.6202 94.3622 19.8592C95.3675 21.1026 95.8704 22.8567 95.8704 25.1253V26.4212H87.0284C87.1194 27.5985 87.4941 28.5324 88.1469 29.2185C88.7897 29.9002 89.6866 30.2745 90.6184 30.2485C91.9757 30.2661 93.2525 29.5964 94.019 28.4649L95.657 30.1175C95.1235 30.9628 94.3727 31.6485 93.4864 32.1022ZM92.057 21.399H92.0535C91.583 20.85 90.924 20.5744 90.0805 20.5744C89.3013 20.5488 88.5545 20.8919 88.0599 21.4977C87.5466 22.1133 87.2213 22.9722 87.0792 24.071H92.8677V23.8364C92.8008 22.7601 92.531 21.9497 92.057 21.399ZM106.635 32.5462L106.638 32.5449L102.625 26.4212L101.272 27.886V32.5444H98.2334V12.2729H101.275V23.9665L102.226 22.7138L105.964 18.2644H109.613L104.587 24.2152L110.154 32.5457H106.635V32.5462ZM112.365 14.7938V14.7911H115.404V18.2635H117.795V20.6432H115.404V28.6117C115.404 29.1559 115.506 29.5514 115.712 29.7917C115.915 30.0364 116.28 30.155 116.807 30.155C117.163 30.155 117.522 30.11 117.87 30.0241V32.5039C117.22 32.701 116.545 32.8024 115.867 32.8063C113.535 32.8063 112.365 31.4496 112.365 28.7295V20.6401H110.137V18.2644H112.365V14.7951V14.7938ZM131.3 32.5436H128.2C128.023 32.1181 127.905 31.6701 127.849 31.2124C126.952 32.2424 125.655 32.8253 124.296 32.8063C122.938 32.8063 121.829 32.3985 120.971 31.5806C120.127 30.8028 119.658 29.6964 119.683 28.546C119.683 27.0248 120.216 25.855 121.289 25.0428C122.361 24.2284 123.892 23.821 125.884 23.821H127.75V22.884C127.779 22.2376 127.572 21.6044 127.159 21.108C126.767 20.6661 126.173 20.4435 125.372 20.4435C124.762 20.4166 124.16 20.6092 123.672 20.9884C123.246 21.3165 123 21.8337 123.008 22.3818H119.969C119.975 21.5881 120.234 20.8187 120.708 20.1864C121.225 19.4818 121.919 18.928 122.713 18.5801C123.605 18.1845 124.571 17.9861 125.546 17.9998C127.131 17.9998 128.392 18.4222 129.338 19.2604C130.277 20.1013 130.762 21.2826 130.786 22.8042V29.2454C130.786 30.5294 130.957 31.5541 131.3 32.3182V32.544V32.5436ZM123.303 29.6881C123.733 30.0686 124.291 30.2661 124.859 30.2348C125.453 30.2348 126.039 30.0752 126.553 29.7714C127.06 29.4866 127.474 29.0562 127.747 28.5319V25.8378H126.109C124.984 25.8378 124.138 26.0455 123.571 26.4613C123.016 26.8476 122.694 27.5147 122.722 28.2162C122.697 28.77 122.909 29.3089 123.303 29.6881ZM154.599 22.6856V30.0514C153.901 30.9866 152.951 31.7009 151.86 32.107C150.591 32.5934 149.242 32.8306 147.884 32.8063C146.457 32.8341 145.053 32.4554 143.83 31.7128C142.639 30.9628 141.691 29.8719 141.11 28.58C140.443 27.0844 140.105 25.4604 140.119 23.8215V22.3174C140.119 19.4152 140.775 17.1448 142.092 15.5138C143.409 13.8832 145.249 13.0658 147.608 13.0658C149.635 13.0658 151.244 13.5953 152.435 14.6549C153.627 15.7158 154.345 17.2414 154.588 19.2313H151.484C151.134 16.9173 149.862 15.7594 147.669 15.7594C146.252 15.7594 145.173 16.2982 144.437 17.3737C143.698 18.4509 143.318 20.029 143.294 22.1146V23.5891C143.294 25.6628 143.709 27.2739 144.539 28.4221C145.367 29.5695 146.517 30.1418 147.995 30.1418C149.613 30.1418 150.764 29.7529 151.447 28.9808V25.2196H147.694V22.6847H154.599V22.6856H154.599ZM164.88 18.1863L164.868 21.1939C164.458 21.1238 164.043 21.089 163.628 21.089C162.236 21.089 161.296 21.6529 160.814 22.7786V32.5457H157.775V18.2644H160.678L160.752 19.8627C161.484 18.6211 162.501 17.9998 163.804 17.9998C164.169 17.9892 164.535 18.051 164.878 18.1859H164.88V18.1863ZM165.765 25.4304V25.2725C165.746 23.9687 166.016 22.6768 166.557 21.4916C167.029 20.432 167.797 19.5342 168.769 18.9064C169.752 18.2935 170.89 17.9791 172.043 18.0007C173.87 18.0007 175.353 18.6215 176.488 19.8623C177.626 21.1027 178.244 22.7473 178.336 24.7959L178.349 25.5521C178.37 26.8507 178.108 28.14 177.577 29.3252C177.109 30.3821 176.347 31.2776 175.377 31.8998C174.383 32.5167 173.237 32.831 172.07 32.8072C170.161 32.8072 168.632 32.1374 167.487 30.7957C166.337 29.4535 165.765 27.6686 165.765 25.4304ZM169.682 21.8218C169.098 22.6547 168.806 23.8955 168.806 25.549C168.806 27.0191 169.093 28.1677 169.668 28.9993C170.215 29.8173 171.12 30.2886 172.07 30.248C173.034 30.2802 173.942 29.7996 174.464 28.9817C175.037 28.1382 175.321 26.9014 175.321 25.2721C175.321 23.8303 175.028 22.6856 174.439 21.8434C173.899 21.0581 173.013 20.5841 172.065 20.5731C171.117 20.5757 170.228 21.0405 169.679 21.8205L169.682 21.8218ZM189.189 32.5436L189.111 31.1458C188.226 32.253 186.956 32.8068 185.313 32.8068C183.848 32.8094 182.734 32.3562 181.979 31.45C181.227 30.5444 180.846 29.2322 180.846 27.5178V18.2652H183.887V27.4777C183.887 29.289 184.6 30.1951 186.025 30.1951C187.503 30.1951 188.499 29.6374 189.013 28.5196V18.2652H192.054V32.5453H189.189V32.5436H189.189ZM207 25.3546V25.3506V25.549C207 27.7577 206.523 29.5205 205.573 30.8354C204.684 32.1176 203.251 32.8548 201.746 32.8063C200.26 32.8063 199.075 32.2935 198.183 31.2631V38.0332H195.144V18.2661H197.945L198.068 19.7177C198.959 18.5752 200.175 18.0029 201.71 18.0029C203.358 18.0029 204.654 18.6524 205.591 19.9523C206.529 21.2442 207 23.048 207 25.3537V25.3546ZM203.155 29.0148C203.699 28.1924 203.972 26.945 203.972 25.2725C203.972 23.8488 203.701 22.7169 203.166 21.88C202.678 21.0731 201.794 20.5925 200.858 20.6273C199.615 20.6273 198.723 21.1701 198.183 22.2531V28.5866C198.733 29.6938 199.632 30.2489 200.885 30.2489C201.806 30.2741 202.671 29.8045 203.155 29.0148ZM35.509 23.2055V46.996H33.1311V19.114H48.3873V23.2055H35.509ZM30.41 17.9112H30.4026V46.996H28.02V13.8193H48.3851V17.9112H30.41ZM0.00306918 13.8193H20.1833V46.996H17.8046V17.9112H0.00306918V13.8193ZM48.3869 12.6164H25.2853V46.996H22.9227V12.6191H0V7.80806H48.3851V12.6191L48.3869 12.6164ZM0.00306918 24.411H9.97444V46.9996H7.49865V28.4839L7.46804 28.4865V28.4839H0.0034962V24.4097V24.411H0.00306918ZM0.00306918 19.1167H15.0795V47H12.6995V23.2813L12.6649 23.2866V23.2041H0.00611168V19.1127V19.1154L0.00306918 19.1167ZM0.00306918 29.7057H4.95945V47H2.53875V32.1926H0.00306918V29.7057ZM0.00306918 6.59813V0H48.3851V6.59813H0H0.00306918ZM40.6097 28.4843V46.9974H38.2358V24.4123H48.3869V28.4865H40.6097V28.4843ZM48.3869 32.1926H45.7445V46.9974H43.3408V29.707H48.3851V32.1935L48.3869 32.1926Z" fill="black"/>
</svg>
