<svg width="203" height="54" viewBox="0 0 203 54" fill="none" xmlns="http://www.w3.org/2000/svg">
<path d="M60.8793 9.23656C64.2781 8.94836 67.2325 11.402 67.379 14.7212V15.4412C67.379 19.1947 64.8686 21.3577 60.8793 21.3577H52.9022V27.4183H49.5039V9.23606H60.8793V9.23656ZM61.0278 18.185C62.5038 18.3272 63.8347 17.1744 63.9822 15.7304V15.2971C64.1234 13.6868 62.9332 12.2647 61.3238 12.1225H52.7557V18.1846H61.0278V18.185ZM80.0849 27.7094C74.1752 27.7094 69.3004 23.8123 69.3004 18.185C69.3004 12.5548 74.1752 8.6582 80.0849 8.6582C85.9941 8.6582 90.8693 12.5543 90.8693 18.185C90.8693 23.8123 85.9941 27.707 80.0849 27.707V27.7094ZM80.0849 11.6902C76.3911 11.4015 73.1432 14.1414 72.8462 17.7508V18.185C72.8462 21.9346 75.6536 24.6779 80.0863 24.6779C84.5181 24.6779 87.324 21.9346 87.324 18.1816C87.324 14.4311 84.5181 11.6888 80.0849 11.6888" fill="black"/>
<path d="M105.049 27.7093C98.8459 27.7093 94.2656 23.8122 94.2656 18.1849C94.2656 12.5547 98.9943 8.65808 105.051 8.65808C108.154 8.51398 111.107 9.52513 113.618 11.4014L111.847 13.9981C109.926 12.5542 107.563 11.6886 105.2 11.6886C100.618 11.6886 97.8114 14.4305 97.8114 18.0394C97.8114 21.6473 100.618 24.5337 105.197 24.5337C107.709 24.5337 110.073 23.8122 111.995 22.3673L113.766 24.967C111.212 26.7539 108.168 27.7122 105.051 27.7064" fill="black"/>
<path d="M143.314 22.8025L141.246 27.1314H137.551L146.563 9.0918H150.109L159.121 27.1314H155.428L153.359 22.8025H143.314ZM144.79 19.9146H151.883L148.336 12.5551L144.79 19.9146H144.79Z" fill="black"/>
<path d="M177.145 27.2759V19.4832H165.032V27.2759H161.633V9.23633H165.032V16.5958H177.145V9.23633H180.542V27.2759H177.145ZM185.713 27.2759V9.23633H189.111V17.6055L198.418 9.23633H202.555L193.1 17.8947L202.998 27.2759H198.418L189.111 18.4715V27.2759H185.713Z" fill="black"/>
<path d="M128.985 15.7307H121.008V11.9787H134.156V9.09277H117.461V27.1309H128.838C132.826 27.1309 135.634 24.9679 135.634 21.3585C135.633 17.7511 133.123 15.7307 128.985 15.7307ZM129.28 24.0999H121.008V18.7613H129.281C131.35 18.7613 132.68 19.9165 132.68 21.5031C132.68 23.0897 131.644 24.244 129.28 24.0999Z" fill="black"/>
<path d="M113.913 50.2224V50.3655C113.91 51.2607 113.599 52.1292 113.028 52.8191C112.437 53.397 111.548 53.8298 110.663 53.8298C108.742 53.8298 107.266 52.2413 107.266 50.5096C107.266 49.644 107.708 48.7789 108.3 48.055C108.889 47.4786 109.775 47.1895 110.663 47.1895C111.846 47.1895 112.879 47.7673 113.47 48.6349L112.584 49.2127C112.141 48.6348 111.401 48.3442 110.663 48.3442C110.072 48.3442 109.482 48.4893 109.038 48.9221C108.595 49.3548 108.3 49.9327 108.446 50.5091C108.446 51.0885 108.595 51.6644 109.038 52.0982C109.482 52.5295 110.072 52.6746 110.663 52.6746C111.548 52.6746 112.437 52.0982 112.732 51.2306H110.367V50.0744L113.914 50.22V50.2224H113.913Z" fill="black"/>
<path d="M121.451 53.6857H120.27L118.939 51.3752H116.43V53.6857H115.395V47.4791H119.531C119.974 47.4791 120.565 47.6246 120.859 48.0555C121.155 48.4902 121.301 48.9231 121.301 49.4995C121.448 50.3849 120.856 51.2214 119.974 51.3757L121.451 53.6857ZM119.384 50.3655C119.826 50.3655 120.27 50.0754 120.27 49.7877V49.499C120.27 48.9226 119.975 48.6353 119.384 48.6353H116.427V50.3655H119.384ZM129.281 50.5096C129.281 52.3859 127.803 53.8298 125.883 53.8298C123.965 53.8298 122.485 52.3859 122.485 50.5096C122.485 49.644 122.929 48.7789 123.519 48.055C124.11 47.4786 124.995 47.1895 125.883 47.1895C126.768 47.1895 127.509 47.4791 128.099 48.055C128.838 48.7789 129.281 49.645 129.281 50.5096ZM128.1 50.5096C128.1 49.9332 127.951 49.3553 127.509 48.9225C127.066 48.4892 126.475 48.3437 125.883 48.3437C125.292 48.3437 124.701 48.4897 124.258 48.9225C123.814 49.3553 123.519 49.9332 123.667 50.5096C123.667 51.0889 123.814 51.6649 124.258 52.0986C125.292 52.9637 126.623 52.9637 127.657 52.0986C127.951 51.6649 128.247 51.086 128.1 50.5096Z" fill="black"/>
<path d="M136.519 51.6643C136.519 52.2422 136.226 52.8186 135.781 53.2514C134.452 54.1189 132.825 54.1189 131.496 53.2514C131.052 52.8186 130.609 52.2408 130.609 51.6643V47.4785H131.644V51.3747C131.644 52.2422 132.235 52.8186 133.566 52.8186C134.895 52.8186 135.486 52.3853 135.486 51.3747V47.4785H136.519V51.6619V51.6643Z" fill="black"/>
<path d="M142.28 47.4785C142.723 47.4785 143.314 47.6241 143.608 48.0579C143.903 48.4892 144.05 48.922 144.05 49.4984C144.05 50.0782 143.903 50.5091 143.608 50.9423C143.165 51.3751 142.723 51.5221 142.131 51.5221H139.175V53.8292H138.141V47.6226H142.279V47.4785H142.28ZM142.131 50.3649C142.723 50.3649 143.017 50.0748 143.017 49.4984C143.017 48.922 142.723 48.6348 141.983 48.6348H139.028V50.3649H142.131Z" fill="black"/>
<path d="M5.4754 48.9236C4.8854 48.4904 4.14596 48.3448 3.26048 48.3448C2.07805 48.3448 1.63555 48.6344 1.63555 49.0667C1.63555 49.5 1.78159 49.5 2.227 49.6456L3.99748 49.7902C4.59039 49.7902 5.1799 50.0798 5.77136 50.3671C6.21337 50.6558 6.36234 51.2322 6.36234 51.6655C6.36234 52.2433 6.06684 52.8198 5.62385 53.2526C5.0324 53.6868 4.29492 53.8304 3.55451 53.8304C2.37306 53.8304 1.33861 53.5408 0.453125 52.6761L1.0441 51.8086C1.7816 52.3864 2.6695 52.6761 3.70297 52.6761C4.14547 52.6761 4.58991 52.6761 5.03193 52.3865C5.30752 52.2506 5.47927 51.9721 5.47685 51.6655C5.47685 51.3758 5.17941 51.0866 4.88489 50.9435C4.58989 50.7999 4.29393 50.7999 3.84997 50.7999L2.52007 50.6558C2.07757 50.6558 1.48659 50.5102 1.19256 50.2215C0.895132 49.9338 0.749591 49.4995 0.749591 49.0663C0.749591 48.4898 1.0436 47.9135 1.48707 47.6248C2.07804 47.1915 2.81604 47.0469 3.55451 47.0469C4.59041 47.0469 5.62387 47.3375 6.36234 47.9134L5.47732 48.9231H5.4754V48.9236Z" fill="black"/>
<path d="M14.0456 50.5093C14.1941 52.2405 12.7143 53.6854 10.9423 53.8295H10.6474C8.72646 53.8295 7.25 52.2409 7.25 50.5093C7.25 49.6437 7.692 48.7786 8.28394 48.0547C9.59203 46.9023 11.5542 46.9023 12.8632 48.0547C13.6012 48.7786 14.0456 49.6447 14.0456 50.5093ZM13.0117 50.5093C13.0117 49.9329 12.8628 49.355 12.4198 48.9222C11.9773 48.4889 11.3848 48.3434 10.7953 48.3434C10.2034 48.3434 9.61243 48.4894 9.16896 48.9222C8.72549 49.355 8.42951 49.9329 8.57798 50.5093C8.57798 51.0886 8.72549 51.6645 9.16896 52.0983C10.2034 52.9634 11.5348 52.9634 12.5673 52.0983C12.7143 51.6645 13.0117 51.0857 13.0117 50.5093Z" fill="black"/>
<path d="M21.5805 48.9231L20.6936 49.3558C20.2506 48.778 19.3641 48.3452 18.6237 48.3452C18.0342 48.3452 17.2962 48.4903 16.8537 48.9231C15.975 49.7862 15.9648 51.1962 16.8265 52.0725C16.8357 52.0812 16.844 52.0899 16.8537 52.0991C17.2962 52.5304 18.0347 52.8192 18.6237 52.6756C19.5126 52.6756 20.2506 52.2408 20.6936 51.6649L21.5805 52.2427C20.9886 53.2515 19.8066 53.8298 18.6237 53.8298C17.7387 53.8298 16.8537 53.5402 16.1133 52.9623C15.5223 52.3859 15.0793 51.5193 15.2283 50.5096C15.2283 49.644 15.5223 48.6353 16.2623 48.055C16.8537 47.4786 17.7387 47.1895 18.4767 47.1895C19.8061 47.1895 20.9886 47.9134 21.5805 48.9231ZM23.0569 47.4791H24.578V53.6857H23.0569V47.4791ZM31.182 53.6857H25.7158V47.4791H31.035V48.4897H26.7498V49.9337H29.7056V50.9429H26.7498V52.53H31.182V53.6857ZM37.6827 48.4897H35.3173V53.6857H34.2839V48.4897H31.921V47.4791H37.6827V48.4897ZM44.3308 53.6857H38.8646V47.4791H44.1829V48.4897H39.899V49.9337H42.8515V50.9429H39.899V52.53H44.3308V53.6857ZM54.5253 50.2224V50.3655C54.5219 51.2607 54.2099 52.1292 53.6374 52.8191C53.0484 53.397 52.1629 53.8298 51.2745 53.8298C49.3541 53.8298 47.8772 52.2413 47.8772 50.5096C47.8772 49.644 48.3201 48.7789 48.9116 48.055C49.5016 47.4786 50.3871 47.1895 51.2745 47.1895C52.4559 47.1895 53.4914 47.7673 54.0823 48.6349L53.1954 49.2127C52.7534 48.6348 52.0129 48.3442 51.2745 48.3442C50.6835 48.3442 50.0921 48.4893 49.6491 48.9221C48.7728 49.7852 48.7617 51.1952 49.6239 52.0715C49.6316 52.0802 49.6399 52.0889 49.6491 52.0982C50.0921 52.5295 50.6835 52.6746 51.2745 52.6746C52.3084 52.6746 53.0484 52.0982 53.3429 51.2306H50.9795V50.0744L54.5258 50.22V50.2224H54.5253ZM61.468 53.6857H55.8533V47.4791H61.1739V48.4897H56.8892V49.9337H59.8431V50.9429H56.8892V52.53H61.4685V53.6857H61.468ZM68.7076 53.6857H67.2297L63.6844 48.4897V53.6857H62.6499V47.4791H64.1264L67.6727 52.6756V47.4791H68.7076V53.6857ZM75.9453 53.6857H70.332V47.4791H75.6512V48.4897H71.3679V49.9337H74.3204V50.9429H71.3679V52.53H75.9457V53.6857H75.9453Z" fill="black"/>
<path d="M83.1871 53.6851H82.0042L80.6757 51.3747H78.1629V53.6851H77.1289V47.4785H81.2667C81.7072 47.4785 82.3006 47.6241 82.5946 48.0549C82.8921 48.4897 83.0376 48.9225 83.0376 49.4989C83.1851 50.3844 82.5913 51.2208 81.7097 51.3751L83.1851 53.6857H83.1871V53.6851ZM81.1197 50.3649C81.7106 50.3649 82.0046 50.0748 82.0046 49.4984C82.0046 48.922 81.7106 48.6348 80.9707 48.6348H78.0168V50.3649H81.1197ZM90.5727 53.6851H89.5388L88.9493 52.3853H85.5485L84.9576 53.6851H83.9236L86.7314 47.4785H87.9134L90.5727 53.6851ZM88.5043 51.231L87.3224 48.4892L86.1395 51.231H88.5043Z" fill="black"/>
<path d="M96.4818 53.6855H91.6075V47.4789H92.6415V52.5298H96.4818V53.6855ZM103.13 53.6855H97.6633V47.4789H102.981V48.4895H98.6977V49.9335H101.654V50.9427H98.6977V52.5298H103.13V53.6855ZM0.0117188 0H37.0924V36.5072H0.0117188V0ZM6.36342 17.0294V19.1953H30.4442V17.0294H6.3644H6.36342Z" fill="black"/>
</svg>
