<svg width="48" height="63" viewBox="0 0 48 63" fill="none" xmlns="http://www.w3.org/2000/svg">
<path d="M47.935 63H0.0649986L0.026001 62.041C0.012001 61.695 0 61.349 0 61C0 47.767 10.767 37 24 37C37.233 37 48 47.767 48 61C48 61.349 47.988 61.695 47.974 62.041L47.935 63ZM2 61H46C46 48.869 36.131 39 24 39C11.869 39 2 48.869 2 61Z" fill="#EA0000"/>
<path d="M14 41H12V62H14V41Z" fill="#EA0000"/>
<path d="M36 40H34V61H36V40Z" fill="#EA0000"/>
<path d="M35 49H12V51H35V49Z" fill="#EA0000"/>
<path d="M40.9985 19H38.9985C38.9985 12.162 34.3815 6.18999 27.7695 4.47899L28.2715 2.54199C35.7655 4.48199 40.9985 11.25 40.9985 19Z" fill="#EA0000"/>
<path d="M9 19.0005H7C7 11.2925 12.198 4.53345 19.642 2.56445L20.154 4.49846C13.586 6.23546 9 12.1985 9 19.0005Z" fill="#EA0000"/>
<path d="M24.0019 34.0005C17.0459 34.0005 11.0509 29.2855 9.42188 22.5335L11.3649 22.0645C12.7769 27.9145 17.9739 32.0005 24.0019 32.0005C30.0049 32.0005 35.1959 27.9345 36.6269 22.1125L38.5679 22.5905C36.9179 29.3085 30.9289 34.0005 24.0019 34.0005Z" fill="#EA0000"/>
<path d="M29 18H27V5C27 3.346 25.654 2 24 2C22.346 2 21 3.346 21 5V18H19V5C19 2.243 21.243 0 24 0C26.757 0 29 2.243 29 5V18Z" fill="#EA0000"/>
<path d="M39 23H9C7.346 23 6 21.654 6 20C6 18.346 7.346 17 9 17H39C40.654 17 42 18.346 42 20C42 21.654 40.654 23 39 23ZM9 19C8.448 19 8 19.449 8 20C8 20.551 8.448 21 9 21H39C39.552 21 40 20.551 40 20C40 19.449 39.552 19 39 19H9Z" fill="#EA0000"/>
</svg>
