<svg width="64" height="45" viewBox="0 0 64 45" fill="none" xmlns="http://www.w3.org/2000/svg">
<path d="M41 33H0V0H41V33ZM2 31H39V2H2V31Z" fill="#EA0000"/>
<path d="M46 37H19V39H46V37Z" fill="#EA0000"/>
<path d="M64 39H57V37H62V33H2V37H7V39H0V31H64V39Z" fill="#EA0000"/>
<path d="M64 33H39V8H52.582L58.325 18.309L64 23.591V33ZM41 31H62V24.462L56.654 19.42L51.406 10H41V31Z" fill="#EA0000"/>
<path d="M12.9862 45C9.38222 45 6.44922 42.065 6.44922 38.457C6.44922 34.851 9.38222 31.917 12.9862 31.917C16.5932 31.917 19.5292 34.851 19.5292 38.457C19.5292 42.065 16.5942 45 12.9862 45ZM12.9862 33.917C10.4842 33.917 8.44922 35.954 8.44922 38.457C8.44922 40.962 10.4842 43 12.9862 43C15.4912 43 17.5292 40.962 17.5292 38.457C17.5292 35.954 15.4912 33.917 12.9862 33.917Z" fill="#EA0000"/>
<path d="M51.3565 45C47.7485 45 44.8125 42.065 44.8125 38.457C44.8125 34.851 47.7485 31.917 51.3565 31.917C54.9635 31.917 57.8995 34.851 57.8995 38.457C57.8995 42.065 54.9645 45 51.3565 45ZM51.3565 33.917C48.8505 33.917 46.8125 35.954 46.8125 38.457C46.8125 40.962 48.8505 43 51.3565 43C53.8615 43 55.8995 40.962 55.8995 38.457C55.8995 35.954 53.8615 33.917 51.3565 33.917Z" fill="#EA0000"/>
</svg>
