<svg width="61" height="51" viewBox="0 0 61 51" fill="none" xmlns="http://www.w3.org/2000/svg">
<path d="M42.4982 51.0001C33.0242 51.0001 25.5422 42.0981 25.2272 41.7191L24.6992 41.0811L25.2272 40.4431C25.5412 40.0641 33.0242 31.1621 42.4982 31.1621C51.9722 31.1621 59.4542 40.0641 59.7692 40.4431L60.2972 41.0811L59.7692 41.7191C59.4542 42.0981 51.9722 51.0001 42.4982 51.0001ZM27.3422 41.0801C29.2022 43.0651 35.3632 49.0001 42.4982 49.0001C49.6472 49.0001 55.7972 43.0681 57.6542 41.0821C55.7942 39.0971 49.6332 33.1621 42.4982 33.1621C35.3492 33.1621 29.1992 39.0941 27.3422 41.0801Z" fill="#EA0000"/>
<path d="M42.498 46.541C39.488 46.541 37.0391 44.092 37.0391 41.082C37.0391 38.072 39.488 35.623 42.498 35.623C45.508 35.623 47.957 38.072 47.957 41.082C47.957 44.092 45.508 46.541 42.498 46.541ZM42.498 37.622C40.591 37.622 39.0391 39.174 39.0391 41.081C39.0391 42.988 40.591 44.54 42.498 44.54C44.405 44.54 45.957 42.988 45.957 41.081C45.957 39.174 44.405 37.622 42.498 37.622Z" fill="#EA0000"/>
<path d="M26 50H8V17H10V48H26V50Z" fill="#EA0000"/>
<path d="M46 17H44V28H46V17Z" fill="#EA0000"/>
<path d="M27.6677 1.73397L26.3438 0.236328L0.336749 23.2267L1.66068 24.7244L27.6677 1.73397Z" fill="#EA0000"/>
<path d="M53.6601 23.2646L27.6602 0.263672L26.3356 1.76093L52.3356 24.7619L53.6601 23.2646Z" fill="#EA0000"/>
</svg>
