<svg width="57" height="57" viewBox="0 0 57 57" fill="none" xmlns="http://www.w3.org/2000/svg">
<path d="M28.4985 47.0595C18.2645 47.0595 9.9375 38.7335 9.9375 28.4995C9.9375 18.2655 18.2635 9.93945 28.4985 9.93945C31.9295 9.93945 35.2785 10.8825 38.1865 12.6665L37.1415 14.3715C34.5475 12.7805 31.5585 11.9395 28.4975 11.9395C19.3655 11.9395 11.9365 19.3685 11.9365 28.4995C11.9365 37.6305 19.3655 45.0595 28.4975 45.0595C37.6295 45.0595 45.0585 37.6305 45.0585 28.4995C45.0585 25.1705 44.0755 21.9605 42.2135 19.2175L43.8675 18.0945C45.9545 21.1705 47.0575 24.7685 47.0575 28.4995C47.0595 38.7335 38.7325 47.0595 28.4985 47.0595Z" fill="#EA0000"/>
<path d="M28.5 56.9998C27.498 56.9998 26.474 56.9448 25.456 56.8358L24.661 56.7518L24.029 51.2967C22.993 51.0938 21.97 50.8197 20.972 50.4777L17.697 54.8858L16.966 54.5617C15.106 53.7367 13.332 52.7118 11.696 51.5138L11.052 51.0428L13.232 46.0047C12.438 45.3117 11.689 44.5638 10.995 43.7677L5.955 45.9478L5.483 45.3028C4.285 43.6628 3.26 41.8887 2.437 40.0317L2.11301 39.3008L6.521 36.0278C6.179 35.0298 5.90599 34.0068 5.70399 32.9708L0.248001 32.3387L0.164001 31.5428C0.0550015 30.5098 0 29.4868 0 28.4998C0 27.5128 0.0550015 26.4898 0.164001 25.4578L0.248001 24.6618L5.70399 24.0298C5.90599 22.9928 6.18 21.9698 6.521 20.9718L2.11301 17.6998L2.437 16.9688C3.26 15.1108 4.285 13.3368 5.483 11.6968L5.955 11.0518L10.995 13.2318C11.689 12.4368 12.438 11.6878 13.232 10.9948L11.052 5.95775L11.696 5.48575C13.332 4.28775 15.105 3.26175 16.966 2.43775L17.697 2.11475L20.972 6.52175C21.97 6.17975 22.993 5.90475 24.029 5.70275L24.661 0.246753L25.458 0.16275C27.509 -0.05425 29.491 -0.05425 31.542 0.16275L32.339 0.246753L32.971 5.70275C34.006 5.90575 35.031 6.17975 36.028 6.52175L39.304 2.11375L40.034 2.43775C40.979 2.85675 41.916 3.33475 42.818 3.85875L41.814 5.58775C41.205 5.23375 40.58 4.90275 39.947 4.59975L36.738 8.91775L36.031 8.64875C34.7 8.14275 33.311 7.77075 31.903 7.54375L31.156 7.42275L30.537 2.07875C29.162 1.97375 27.838 1.97375 26.463 2.07875L25.844 7.42375L25.097 7.54375C23.69 7.77075 22.301 8.14175 20.969 8.64875L20.262 8.91775L17.053 4.59975C15.826 5.18775 14.645 5.87075 13.527 6.63875L15.664 11.5758L15.078 12.0538C13.975 12.9538 12.958 13.9708 12.055 15.0758L11.576 15.6608L6.63901 13.5248C5.87001 14.6458 5.18801 15.8278 4.60001 17.0538L8.91901 20.2598L8.649 20.9678C8.143 22.2987 7.771 23.6878 7.545 25.0968L7.425 25.8438L2.08 26.4628C2.027 27.1538 2 27.8368 2 28.4998C2 29.1628 2.027 29.8458 2.08 30.5368L7.425 31.1567L7.545 31.9038C7.772 33.3118 8.144 34.7007 8.649 36.0317L8.91901 36.7397L4.60001 39.9458C5.18801 41.1718 5.87101 42.3528 6.63901 43.4738L11.576 41.3377L12.055 41.9227C12.958 43.0277 13.976 44.0448 15.078 44.9448L15.664 45.4227L13.527 50.3598C14.646 51.1278 15.827 51.8108 17.053 52.3988L20.262 48.0808L20.969 48.3498C22.3 48.8558 23.689 49.2278 25.097 49.4548L25.844 49.5757L26.463 54.9198C27.828 55.0247 29.172 55.0247 30.537 54.9198L31.156 49.5757L31.903 49.4548C33.311 49.2268 34.7 48.8558 36.031 48.3498L36.738 48.0808L39.947 52.3988C41.173 51.8108 42.353 51.1278 43.473 50.3588L41.338 45.4227L41.923 44.9448C43.027 44.0428 44.043 43.0257 44.945 41.9217L45.424 41.3368L50.36 43.4728C51.13 42.3498 51.812 41.1688 52.399 39.9448L48.082 36.7378L48.351 36.0308C48.858 34.6987 49.229 33.3097 49.455 31.9038L49.575 31.1558L54.921 30.5358C54.974 29.8448 55.001 29.1618 55.001 28.4988C55.001 27.8358 54.974 27.1528 54.921 26.4618L49.575 25.8428L49.455 25.0948C49.229 23.6878 48.857 22.2988 48.351 20.9668L48.081 20.2588L52.399 17.0528C51.812 15.8288 51.129 14.6468 50.36 13.5238L46.118 15.3598L45.323 13.5238L51.044 11.0488L51.516 11.6938C52.716 13.3378 53.742 15.1108 54.562 16.9658L54.886 17.6968L50.479 20.9688C50.821 21.9668 51.094 22.9908 51.296 24.0268L56.752 24.6588L56.836 25.4548C56.945 26.4898 57 27.5128 57 28.4998C57 29.4868 56.945 30.5098 56.836 31.5418L56.752 32.3377L51.296 32.9698C51.094 34.0058 50.82 35.0288 50.479 36.0268L54.886 39.2998L54.562 40.0308C53.742 41.8857 52.716 43.6588 51.516 45.3028L51.044 45.9478L46.005 43.7677C45.312 44.5617 44.564 45.3107 43.77 46.0037L45.948 51.0428L45.304 51.5138C43.665 52.7128 41.893 53.7377 40.034 54.5607L39.303 54.8848L36.028 50.4767C35.031 50.8187 34.007 51.0928 32.971 51.2957L32.339 56.7508L31.544 56.8348C30.526 56.9448 29.502 56.9998 28.5 56.9998Z" fill="#EA0000"/>
<path d="M28.9749 41.1682L16.5859 22.4932L18.2519 21.3882L28.7229 37.1712L46.3419 1.61816L48.1349 2.50517L28.9749 41.1682Z" fill="#EA0000"/>
</svg>
