<svg width="49" height="61" viewBox="0 0 49 61" fill="none" xmlns="http://www.w3.org/2000/svg">
<path d="M49 61H0V0H36.57L49 12.557V61ZM2 59H47V13.379L35.736 2H2V59Z" fill="#EA0000"/>
<path d="M28 15H8C7.447 15 7 14.552 7 14C7 13.448 7.447 13 8 13H28C28.553 13 29 13.448 29 14C29 14.552 28.553 15 28 15Z" fill="#EA0000"/>
<path d="M28 23H8C7.447 23 7 22.552 7 22C7 21.448 7.447 21 8 21H28C28.553 21 29 21.448 29 22C29 22.552 28.553 23 28 23Z" fill="#EA0000"/>
<path d="M28 30H8C7.447 30 7 29.552 7 29C7 28.448 7.447 28 8 28H28C28.553 28 29 28.448 29 29C29 29.552 28.553 30 28 30Z" fill="#EA0000"/>
<path d="M47 14H35V1H37V12H47V14Z" fill="#EA0000"/>
<path d="M34.9295 52.2761C31.3495 52.2761 28.4375 49.3631 28.4375 45.7821C28.4375 42.2011 31.3495 39.2881 34.9295 39.2881C38.5115 39.2881 41.4255 42.2011 41.4255 45.7821C41.4255 49.3631 38.5115 52.2761 34.9295 52.2761ZM34.9295 41.2891C32.4525 41.2891 30.4375 43.3051 30.4375 45.7831C30.4375 48.2611 32.4535 50.2771 34.9295 50.2771C37.4085 50.2771 39.4255 48.2611 39.4255 45.7831C39.4255 43.3051 37.4085 41.2891 34.9295 41.2891Z" fill="#EA0000"/>
</svg>
