<svg width="44" height="42" viewBox="0 0 44 42" fill="none" xmlns="http://www.w3.org/2000/svg">
<path d="M0 9.92378C0 8.19162 0.249051 6.71318 0.749951 5.48098C1.24992 4.25066 1.9411 3.23115 2.82817 2.42337C3.7115 1.61652 4.77953 1.02885 6.03038 0.663201C7.27843 0.298486 8.63468 0.115657 10.0954 0.115657C11.5561 0.115657 12.9031 0.28822 14.1362 0.634279C15.3656 0.980338 16.4336 1.53723 17.3365 2.30677C18.2413 3.07724 18.9428 4.08648 19.4437 5.33547C19.9446 6.58632 20.2132 8.1142 20.2505 9.92284C20.2132 11.7306 19.9446 13.2603 19.4437 14.5084C18.9428 15.7602 18.2413 16.7685 17.3365 17.5371C16.4336 18.3075 15.3665 18.8644 14.1362 19.2114C12.9031 19.5575 11.5561 19.731 10.0954 19.731C8.63468 19.731 7.2775 19.5565 6.03038 19.2114C4.77953 18.8635 3.71244 18.3066 2.82817 17.5371C1.94203 16.7685 1.25085 15.7602 0.749951 14.5084C0.249051 13.2603 0 11.7306 0 9.92378ZM36.1151 0L40.3285 3.80758L7.09747 42L2.88414 38.0199L36.1151 0ZM6.69265 9.92378C6.69265 13.2323 7.82504 14.8852 10.0945 14.8852C11.2856 14.8852 12.1438 14.5308 12.6633 13.8172C13.1829 13.1046 13.4609 11.807 13.4991 9.92284C13.4618 8.07595 13.1829 6.78874 12.6633 6.05745C12.1438 5.32709 11.2856 4.96142 10.0945 4.96142C8.90519 4.96142 8.03771 5.32709 7.4995 6.05745C6.96222 6.78874 6.69265 8.07689 6.69265 9.92378ZM23.4238 31.3281C23.4238 29.596 23.6747 28.1166 24.1719 26.8844C24.6737 25.656 25.364 24.6364 26.251 23.8287C27.1334 23.0199 28.2024 22.4342 29.4533 22.0676C30.7032 21.7019 32.0585 21.52 33.5183 21.52C34.9818 21.52 36.3287 21.6935 37.5591 22.0387C38.7875 22.3856 39.8574 22.9444 40.7603 23.7121C41.6642 24.4825 42.3675 25.4918 42.8665 26.7417C43.3665 27.9907 43.6361 29.5195 43.6734 31.3281C43.6361 33.1358 43.3665 34.6656 42.8665 35.9137C42.3675 37.1654 41.6642 38.1728 40.7603 38.9424C39.8574 39.7128 38.7885 40.2697 37.5591 40.6167C36.3287 40.9628 34.9818 41.1353 33.5183 41.1353C32.0585 41.1353 30.7022 40.9628 29.4533 40.6167C28.2024 40.2697 27.1344 39.7128 26.251 38.9424C25.3649 38.1728 24.6747 37.1654 24.1719 35.9137C23.6747 34.6656 23.4238 33.1349 23.4238 31.3281ZM30.1146 31.3281C30.1146 34.6348 31.2516 36.2896 33.5173 36.2896C34.7094 36.2896 35.5667 35.9332 36.0862 35.2215C36.6039 34.5089 36.8847 33.2133 36.9238 31.3272C36.8847 29.4813 36.603 28.1931 36.0862 27.4609C35.5667 26.7296 34.7094 26.3658 33.5173 26.3658C32.3271 26.3658 31.4606 26.7305 30.9233 27.4609C30.3842 28.194 30.1146 29.4812 30.1146 31.3281Z" fill="#EA0000"/>
</svg>
