<svg width="46" height="56" viewBox="0 0 46 56" fill="none" xmlns="http://www.w3.org/2000/svg">
<path fill-rule="evenodd" clip-rule="evenodd" d="M4.66636 38.2559L14.2723 35.7707L16.1374 37.2092L20.1473 47.9655L21.4885 41.7548L19.9317 40.5329L20.9004 37.6303H22.2958H23.5939H24.9901L25.9571 40.5329L24.403 41.7548L25.7956 48.2013L29.4404 37.211L31.2889 35.7652L41.2527 38.2504L41.7554 38.3742L42.0765 38.7862C42.4076 39.2146 42.7095 39.6494 42.9847 40.098C44.936 44.4198 46.2368 49.2269 44.9213 56H43.6149H1.98943H0.739954L0.522534 54.7652C-0.150828 50.9562 -0.159074 47.7738 0.415209 45.1418C1.01426 42.3805 2.2509 40.2237 4.03705 38.5926L4.30308 38.3504L4.66636 38.2559ZM7.90933 19.932H9.42393L9.90372 23.175C10.4606 26.1886 11.7156 28.8958 13.4476 31.0306C15.8998 34.0552 19.3078 35.9349 23.0811 35.9349C26.8515 35.9349 30.2614 34.0552 32.7155 31.0306C34.3998 28.9518 35.6346 26.3253 36.2134 23.4062L36.8143 19.932H37.8253H39.0482H41.0472V16.1313L38.6509 15.4378C38.872 11.7453 36.862 5.90337 33.4182 3.69247C32.8008 6.5483 31.6027 8.82435 29.8202 10.516C29.5954 10.516 29.3743 10.516 29.1505 10.516C30.7302 6.9327 31.4907 4.27685 31.6036 2.34391C29.2523 0.856832 26.4424 0 23.3297 0C20.0638 0 17.019 0.94032 14.4485 2.56226C14.6026 4.47409 15.364 7.06664 16.8841 10.516C16.663 10.516 16.4383 10.516 16.2163 10.516C14.4696 8.85646 13.2834 6.64189 12.655 3.86863C9.17349 5.99513 7.09469 11.7416 7.14606 15.3791L4.61683 16.1313V19.932H7.90933ZM12.5678 19.932H19.6739H33.5163H33.5934C33.5319 23.5392 32.3246 26.7941 30.4073 29.1527C28.5092 31.4966 25.913 32.9497 23.082 32.9497C20.2482 32.9497 17.6547 31.4966 15.7557 29.1527C13.8402 26.7941 12.6302 23.5383 12.5678 19.932Z" fill="#EA0000"/>
</svg>
