<svg width="60" height="42" viewBox="0 0 60 42" fill="none" xmlns="http://www.w3.org/2000/svg">
<path d="M12 34.5C9.93182 34.5 8.25 36.1818 8.25 38.25C8.25 40.3182 9.93182 42 12 42C14.0682 42 15.75 40.3182 15.75 38.25C15.75 36.1818 14.0691 34.5 12 34.5Z" fill="#EA0000"/>
<path d="M46.5 34.5C44.4318 34.5 42.75 36.1818 42.75 38.25C42.75 40.3182 44.4318 42 46.5 42C48.5682 42 50.25 40.3182 50.25 38.25C50.25 36.1818 48.5691 34.5 46.5 34.5Z" fill="#EA0000"/>
<path d="M54.0518 17.1327L48.0845 7.5H37.5V0H0V30V37.5H4.95001C5.33182 33.9254 8.33273 31.1255 11.9991 31.1255C15.6673 31.1255 18.6682 33.9264 19.0482 37.5H39.4509C39.8309 33.9273 42.8264 31.1255 46.5 31.1255C50.1736 31.1255 53.1691 33.9282 53.5491 37.5H60V30V22.2009L54.0518 17.1327ZM37.5 19.5V10.5H45.7527L51.7527 19.5H37.5Z" fill="#EA0000"/>
</svg>
