<svg width="52" height="63" viewBox="0 0 52 63" fill="none" xmlns="http://www.w3.org/2000/svg">
<path d="M0 63H43V9H0V63ZM2 11H41V61H2V11Z" fill="#EB0000"/>
<path d="M9 0V7H11V2H50V52H45V54H52V0H9Z" fill="#EB0000"/>
<path d="M17 19H15V25H16H17V19Z" fill="#EB0000"/>
<path d="M19.097 36.129C20.834 35.077 22 33.175 22 31C22 27.691 19.309 25 16 25C12.691 25 10 27.691 10 31C10 33.175 11.166 35.077 12.903 36.129L10.279 44H7V46H9.613L7.051 53.684L8.947 54.317L11.721 46H20.28L23.052 54.316L24.948 53.683L22.387 46H25V44H21.721L19.097 36.129ZM16 27C18.206 27 20 28.794 20 31C20 33.206 18.206 35 16 35C13.794 35 12 33.206 12 31C12 28.794 13.794 27 16 27ZM12.387 44L14.764 36.871C15.163 36.955 15.576 37 16 37C16.424 37 16.837 36.955 17.236 36.871L19.613 44H12.387Z" fill="#EB0000"/>
<path d="M29 25.7759V52.9999C29 54.1029 29.897 54.9999 31 54.9999H34C35.103 54.9999 36 54.1029 36 52.9999V25.7759L32.5 18.3359L29 25.7759ZM34 52.9999H31V49.9999H34V52.9999ZM34 47.9999H31V26.2239L32.5 23.0349L34 26.2239V47.9999Z" fill="#EB0000"/>
</svg>
