<svg width="52" height="63" viewBox="0 0 52 63" fill="none" xmlns="http://www.w3.org/2000/svg">
<path d="M25.8064 6.37988C18.3914 6.37988 12.3594 12.4119 12.3594 19.8269C12.3594 27.2419 18.3914 33.2739 25.8064 33.2739C33.2214 33.2739 39.2534 27.2419 39.2534 19.8269C39.2534 12.4119 33.2214 6.37988 25.8064 6.37988ZM25.8064 31.2739C19.4934 31.2739 14.3594 26.1389 14.3594 19.8269C14.3594 13.5149 19.4944 8.37988 25.8064 8.37988C32.1184 8.37988 37.2534 13.5149 37.2534 19.8269C37.2534 26.1389 32.1184 31.2739 25.8064 31.2739Z" fill="#EB0000"/>
<path d="M25.499 38.3691C11.144 38.3691 2 47.6451 2 62.0001V63.0001H49V62.0001C49 47.6451 39.855 38.3691 25.499 38.3691ZM4.19099 61.0001C4.61199 48.4301 13.002 40.3691 25.805 40.3691C38.611 40.3691 47 48.4301 47.421 61.0001H4.19099Z" fill="#EB0000"/>
<path d="M9.00143 28H10.0014V11.404C13.1384 5.65901 19.2154 2 25.7854 2C32.6714 2 39.0164 6.014 42.0014 12.235V26.016C40.6674 28.814 38.6864 31.312 36.2534 33.245L37.4974 34.81C39.8414 32.948 41.8034 30.608 43.2394 27.986C47.7354 27.854 51.3554 24.025 51.3554 19.499C51.3554 15.105 47.9424 11.368 43.6294 11.032C40.2494 4.317 33.3124 0 25.7854 0C18.2554 0 11.3094 4.328 7.93143 11.058C3.47343 11.509 0.648438 14.792 0.648438 19.5C0.647438 24.575 3.92743 28 9.00143 28ZM44.0014 12.953C47.0314 13.434 49.3554 16.065 49.3554 19.229C49.3554 22.393 47.0314 25.024 44.0014 25.505V12.953ZM8.00143 12.927V25.53C4.62843 25.158 2.64743 22.862 2.64743 19.229C2.64743 15.595 4.62843 13.299 8.00143 12.927Z" fill="#EB0000"/>
</svg>
