<svg width="66" height="65" viewBox="0 0 66 65" fill="none" xmlns="http://www.w3.org/2000/svg">
<path d="M34 0H32V12H34V0Z" fill="#EB0000"/>
<path d="M12 32H0V34H12V32Z" fill="#EB0000"/>
<path d="M66 32H54V34H66V32Z" fill="#EB0000"/>
<path d="M18.8485 17.4422L10.3633 8.95703L8.94908 10.3712L17.4343 18.8564L18.8485 17.4422Z" fill="#EB0000"/>
<path d="M57.0392 10.3693L55.625 8.95508L47.1398 17.4403L48.554 18.8545L57.0392 10.3693Z" fill="#EB0000"/>
<path d="M33 16C23.626 16 16 23.626 16 33C16 38.407 18.616 43.526 23 46.725V59H26.08C26.568 62.387 29.48 65 33 65C36.52 65 39.432 62.387 39.92 59H43V46.725C47.384 43.526 50 38.407 50 33C50 23.626 42.374 16 33 16ZM33 63C30.586 63 28.566 61.279 28.102 59H37.899C37.434 61.279 35.414 63 33 63ZM41 57H25V47H41V57ZM36 34V45H30V34H36ZM41.976 45H38V34H42V32H24V34H28V45H24.024C20.246 42.169 18 37.707 18 33C18 24.729 24.729 18 33 18C41.271 18 48 24.729 48 33C48 37.707 45.754 42.169 41.976 45Z" fill="#EB0000"/>
</svg>
