<svg width="55" height="48" viewBox="0 0 55 48" fill="none" xmlns="http://www.w3.org/2000/svg">
<path d="M21.131 6.0005C20.73 2.7995 17.996 0.3125 14.688 0.3125C11.38 0.3125 8.646 2.7985 8.245 6.0005H0V8.0005H8.30099C8.86199 11.0185 11.51 13.3135 14.688 13.3135C17.866 13.3135 20.514 11.0195 21.075 8.0005H55V6.0005H21.131ZM14.688 11.3135C12.207 11.3135 10.188 9.29451 10.188 6.81351C10.188 4.33251 12.207 2.31351 14.688 2.31351C17.169 2.31351 19.188 4.33251 19.188 6.81351C19.188 9.29451 17.169 11.3135 14.688 11.3135Z" fill="#EB0000"/>
<path d="M38 17.6885C34.822 17.6885 32.174 19.9825 31.613 23.0015H0V25.0015H31.557C31.958 28.2025 34.692 30.6895 38 30.6895C41.308 30.6895 44.042 28.2035 44.443 25.0015H55V23.0015H44.387C43.826 19.9825 41.178 17.6885 38 17.6885ZM38 28.6885C35.519 28.6885 33.5 26.6695 33.5 24.1885C33.5 21.7075 35.519 19.6885 38 19.6885C40.481 19.6885 42.5 21.7075 42.5 24.1885C42.5 26.6695 40.481 28.6885 38 28.6885Z" fill="#EB0000"/>
<path d="M14.688 34.1885C11.336 34.1885 8.57001 36.7395 8.22501 40.0015H0V42.0015H8.32001C8.92901 44.9585 11.552 47.1895 14.687 47.1895C17.822 47.1895 20.445 44.9595 21.054 42.0015H55V40.0015H21.15C20.806 36.7385 18.039 34.1885 14.688 34.1885ZM14.688 45.1885C12.207 45.1885 10.188 43.1695 10.188 40.6885C10.188 38.2075 12.207 36.1885 14.688 36.1885C17.169 36.1885 19.188 38.2075 19.188 40.6885C19.188 43.1695 17.169 45.1885 14.688 45.1885Z" fill="#EB0000"/>
</svg>
