<svg width="53" height="54" viewBox="0 0 53 54" fill="none" xmlns="http://www.w3.org/2000/svg">
<path d="M17.5654 25.6654L19.1304 27.2304L20.5444 25.8164L18.1093 23.3824L17.5194 23.5844C14.1784 24.7304 9.11534 24.4924 5.89034 21.2694C3.51334 18.8924 2.42237 15.5554 2.86537 12.2494L10.2044 19.5874L19.9674 9.82444L12.9304 2.78643C15.8134 2.73743 19.2753 3.43943 21.4973 5.66143C24.6973 8.85943 25.0033 13.6994 23.8873 17.0774L23.6944 17.6624L26.1964 20.1634L27.6104 18.7494L25.9674 17.1064C27.0494 13.1864 26.5273 7.85743 22.9113 4.24543C19.6003 0.935431 14.3504 0.391429 10.5504 0.984429L8.60634 1.28843L17.1394 9.82244L10.2044 16.7574L1.80239 8.35543L1.32033 9.95744C-0.0426705 14.4954 1.16637 19.3704 4.47737 22.6814C8.11437 26.3194 13.6674 26.7774 17.5654 25.6654Z" fill="#EB0000"/>
<path d="M41.148 32.2881L36.604 27.7441L35.19 29.1581L40.364 34.3321L40.813 34.3051C41.999 34.2371 46.065 34.1861 48.466 36.5891C49.989 38.1111 50.809 40.1771 50.772 42.4041C50.736 44.6241 49.862 46.7011 48.31 48.2511C46.768 49.7921 44.715 50.6481 42.528 50.6591C40.349 50.6581 38.289 49.8321 36.757 48.3001C34.651 46.1951 33.83 43.2962 34.562 40.5432L34.709 39.9921L29.539 34.8311L28.125 36.2672L32.494 40.6811C31.828 43.9561 32.87 47.4121 35.343 49.8841C37.243 51.7851 39.778 53.0022 42.486 53.0022C42.503 53.0022 42.52 53.0022 42.538 53.0022C45.256 53.0022 47.808 51.7542 49.725 49.8382C51.645 47.9181 52.728 45.1791 52.773 42.4371C52.819 39.6641 51.792 37.0841 49.881 35.1751C47.19 32.4841 43.158 32.2241 41.148 32.2881Z" fill="#EB0000"/>
<path d="M46.1155 45.9604C47.0535 45.0224 47.5704 43.7754 47.5694 42.4484C47.5694 41.1224 47.0515 39.8744 46.1135 38.9364C45.1745 37.9984 43.9265 37.4824 42.6005 37.4824C41.2745 37.4824 40.0275 37.9984 39.0895 38.9364C37.1525 40.8724 37.1525 44.0224 39.0895 45.9594C40.0275 46.8974 41.2755 47.4144 42.6025 47.4144C43.9295 47.4144 45.1775 46.8984 46.1155 45.9604ZM40.5045 40.3514C41.0645 39.7914 41.8095 39.4834 42.6015 39.4834C43.3935 39.4834 44.1395 39.7924 44.7005 40.3524C45.2625 40.9124 45.5705 41.6574 45.5705 42.4494C45.5705 43.2414 45.2625 43.9864 44.7025 44.5464C43.5815 45.6674 41.6265 45.6674 40.5055 44.5464C39.3485 43.3894 39.3485 41.5074 40.5045 40.3514Z" fill="#EB0000"/>
<path d="M29.0273 33.2598C30.1333 33.2598 31.0273 32.9508 31.6103 32.3688C32.2223 31.7578 32.5473 30.9058 32.5473 29.9048C32.5473 29.0798 32.3213 28.2218 31.9223 27.4178L45.3623 13.9788L48.3763 14.6328L52.9653 5.57181L49.5273 2.13281L40.5813 6.88281L41.3623 10.0098L28.0093 23.3638C27.1753 22.9018 26.2673 22.6438 25.3993 22.6438C24.3933 22.6438 23.4923 22.9908 22.8623 23.6208C21.8393 24.6448 21.5963 26.2988 22.1863 27.9018L20.2613 29.8268C19.7853 29.7038 19.2883 29.6398 18.7973 29.6398C17.3773 29.6398 16.0843 30.1508 15.1553 31.0778L3.73729 42.4968C1.67629 44.5568 1.62832 48.2618 3.63432 50.2708L4.83629 51.4718C5.69329 52.3298 6.80632 52.7838 8.05132 52.7838C9.54832 52.7838 11.0663 52.1248 12.2153 50.9758L23.6333 39.5588C24.9493 38.2428 25.4633 36.5158 25.4273 35.1968L27.5293 33.0948C28.0213 33.2008 28.5423 33.2598 29.0273 33.2598ZM43.5773 10.6218L42.9013 7.91481L49.1583 4.59181L50.5253 5.95981L47.2903 12.3498L44.7203 11.7918L30.7543 25.7568C30.7213 25.7228 30.6913 25.6848 30.6573 25.6518L29.6033 24.5978L43.5773 10.6218ZM26.9593 30.8348L23.3253 34.4698L23.4053 34.9728C23.5403 35.8248 23.1763 37.1858 22.2203 38.1418L10.8023 49.5598C10.0363 50.3248 9.00829 50.7818 8.05229 50.7818C7.33829 50.7818 6.73333 50.5378 6.25133 50.0558L5.0493 48.8548C3.8053 47.6098 3.85533 45.2068 5.15233 43.9098L16.5703 32.4918C17.1213 31.9418 17.9123 31.6388 18.7983 31.6388C19.2703 31.6388 19.7463 31.7268 20.1773 31.8948L20.7853 32.1308L24.6063 28.3078L24.2623 27.6558C23.7403 26.6668 23.7453 25.5638 24.2763 25.0328C24.5993 24.7098 25.0653 24.6418 25.3993 24.6418C26.2893 24.6418 27.2763 25.0988 28.0413 25.8628L29.2433 27.0648C30.0483 27.8698 30.5483 28.9578 30.5473 29.9028C30.5473 30.2228 30.4863 30.6648 30.1973 30.9528C30.0033 31.1478 29.5763 31.2588 29.0273 31.2588C28.4583 31.2588 27.8863 31.1378 27.5423 31.0258L26.9593 30.8348Z" fill="#EB0000"/>
</svg>
