<svg width="100" height="101" viewBox="0 0 100 101" fill="none" xmlns="http://www.w3.org/2000/svg">
<path d="M50 100.5C77.6142 100.5 100 78.1142 100 50.5C100 22.8858 77.6142 0.5 50 0.5C22.3858 0.5 0 22.8858 0 50.5C0 78.1142 22.3858 100.5 50 100.5Z" fill="#EA0000"/>
<path d="M66 28V20H23V73H31V81H74V28H66ZM25 71V22H64V71H25ZM72 79H33V73H66V30H72V79Z" fill="white"/>
<path d="M59 59H30V61H59V59Z" fill="white"/>
<path d="M59 52H30V54H59V52Z" fill="white"/>
<path d="M59 45H30V47H59V45Z" fill="white"/>
<path d="M59 34H38V36H59V34Z" fill="white"/>
</svg>
