<svg width="101" height="101" viewBox="0 0 101 101" fill="none" xmlns="http://www.w3.org/2000/svg">
<path d="M50.3555 100.5C77.9697 100.5 100.355 78.1142 100.355 50.5C100.355 22.8858 77.9697 0.5 50.3555 0.5C22.7412 0.5 0.355469 22.8858 0.355469 50.5C0.355469 78.1142 22.7412 100.5 50.3555 100.5Z" fill="#EA0000"/>
<path d="M68 49H62V51H68V49Z" fill="white"/>
<path d="M68 56H62V58H68V56Z" fill="white"/>
<path d="M68 63H62V65H68V63Z" fill="white"/>
<path d="M68.686 22H32.313C29.383 22 27 24.384 27 27.313V41V43V73.687C27 76.617 29.384 79 32.313 79H68.686C71.616 79 73.999 76.616 73.999 73.687V27.313C73.999 24.384 71.615 22 68.686 22ZM28.999 27.313C28.999 25.486 30.485 24 32.312 24H68.685C70.512 24 71.998 25.486 71.998 27.313V41H28.998V27.313H28.999ZM68.686 77H32.313C30.486 77 29 75.514 29 73.687V43H72V73.687C71.999 75.514 70.513 77 68.686 77Z" fill="white"/>
<path d="M64.808 27H36.191C34.431 27 33 28.431 33 30.19V38H68V30.19C67.999 28.431 66.567 27 64.808 27ZM65.999 36H34.999V30.19C34.999 29.534 35.533 29 36.19 29H64.807C65.464 29 65.998 29.534 65.998 30.19V36H65.999Z" fill="white"/>
<path d="M40.922 49H35.078C33.932 49 33 49.933 33 51.079V56.922C33 58.068 33.933 59.001 35.078 59.001H40.922C42.068 59.001 43 58.068 43 56.922V51.079C43 49.933 42.067 49 40.922 49ZM41 56.921C41 56.964 40.965 57 40.922 57H35.078C35.035 57 35 56.965 35 56.921V51.078C35 51.035 35.035 50.999 35.078 50.999H40.922C40.965 50.999 41 51.034 41 51.078V56.921Z" fill="white"/>
<path d="M54.922 49H49.078C47.932 49 47 49.933 47 51.079V56.922C47 58.068 47.933 59.001 49.078 59.001H54.922C56.068 59.001 57 58.068 57 56.922V51.079C57 49.933 56.067 49 54.922 49ZM55 56.921C55 56.964 54.965 57 54.922 57H49.078C49.035 57 49 56.965 49 56.921V51.078C49 51.035 49.035 50.999 49.078 50.999H54.922C54.965 50.999 55 51.034 55 51.078V56.921Z" fill="white"/>
<path d="M40.922 62H35.078C33.932 62 33 62.933 33 64.079V69.922C33 71.068 33.933 72.001 35.078 72.001H40.922C42.068 72.001 43 71.068 43 69.922V64.079C43 62.933 42.067 62 40.922 62ZM41 69.921C41 69.964 40.965 70 40.922 70H35.078C35.035 70 35 69.965 35 69.921V64.078C35 64.035 35.035 63.999 35.078 63.999H40.922C40.965 63.999 41 64.034 41 64.078V69.921Z" fill="white"/>
<path d="M54.922 62H49.078C47.932 62 47 62.933 47 64.079V69.922C47 71.068 47.933 72.001 49.078 72.001H54.922C56.068 72.001 57 71.068 57 69.922V64.079C57 62.933 56.067 62 54.922 62ZM55 69.921C55 69.964 54.965 70 54.922 70H49.078C49.035 70 49 69.965 49 69.921V64.078C49 64.035 49.035 63.999 49.078 63.999H54.922C54.965 63.999 55 64.034 55 64.078V69.921Z" fill="white"/>
</svg>
