<svg width="101" height="101" viewBox="0 0 101 101" fill="none" xmlns="http://www.w3.org/2000/svg">
<path d="M50.5 100.5C78.1142 100.5 100.5 78.1142 100.5 50.5C100.5 22.8858 78.1142 0.5 50.5 0.5C22.8858 0.5 0.5 22.8858 0.5 50.5C0.5 78.1142 22.8858 100.5 50.5 100.5Z" fill="#EA0000"/>
<path d="M22 22V78H79V22H22ZM60 76V66H58V76H43V66H41V76H24V51H41V58H43V51V49V43H41V49H24V24H41V34H43V24H58V34H60V24H77V49H60V43H58V49V51V58H60V51H77V76H60Z" fill="white"/>
<path d="M34.443 35.1497L36.434 36.9997H28V37.9997H36.436L34.443 39.8497L34.922 40.3627L38 37.4997L34.922 34.6377L34.443 35.1497Z" fill="white"/>
<path d="M66.557 39.8497L64.566 37.9997H73V36.9997H64.564L66.557 35.1497L66.078 34.6367L63 37.4997L66.078 40.3617L66.557 39.8497Z" fill="white"/>
<path d="M34.443 61.1497L36.434 62.9997H28V63.9997H36.436L34.443 65.8497L34.922 66.3627L38 63.4997L34.922 60.6377L34.443 61.1497Z" fill="white"/>
<path d="M66.557 61.1497L66.078 60.6367L63 63.4997L66.078 66.3617L66.557 65.8497L64.566 63.9997H73V62.9997H64.564L66.557 61.1497Z" fill="white"/>
<path d="M50.9997 45.434V37H49.9997V45.434L48.1497 43.444L47.6367 43.921L50.4997 47L53.3617 43.921L52.8497 43.444L50.9997 45.434Z" fill="white"/>
<path d="M50.9997 70.434V62H49.9997V70.434L48.1497 68.444L47.6367 68.921L50.4997 72L53.3617 68.921L52.8497 68.444L50.9997 70.434Z" fill="white"/>
</svg>
