<svg width="101" height="101" viewBox="0 0 101 101" fill="none" xmlns="http://www.w3.org/2000/svg">
<path d="M50.5039 100.5C78.1181 100.5 100.504 78.1142 100.504 50.5C100.504 22.8858 78.1181 0.5 50.5039 0.5C22.8897 0.5 0.503906 22.8858 0.503906 50.5C0.503906 78.1142 22.8897 100.5 50.5039 100.5Z" fill="#EA0000"/>
<path d="M33.7812 56.0615C34.6097 56.0615 35.2812 55.39 35.2812 54.5615C35.2812 53.7331 34.6097 53.0615 33.7812 53.0615C32.9528 53.0615 32.2812 53.7331 32.2812 54.5615C32.2812 55.39 32.9528 56.0615 33.7812 56.0615Z" fill="white"/>
<path d="M79.9994 56.0002H76.9994C75.3454 56.0002 73.9994 57.3462 73.9994 59.0002V62.0002H61.5804L59.1884 57.3412L59.0174 57.4292C60.2644 55.3232 60.3754 52.6222 59.0674 50.3552L58.5674 49.4882L66.3614 44.9882C69.7034 43.0582 70.8524 38.7692 68.9244 35.4262L62.9244 25.0332C61.6774 22.8742 59.3514 21.5332 56.8554 21.5332C55.6334 21.5332 54.4254 21.8572 53.3624 22.4712L11.9414 46.3862L19.7524 50.4242C18.8814 52.5532 19.0234 54.9972 20.1914 57.0202C21.5794 59.4232 24.1054 60.7692 26.6994 60.7692C27.4884 60.7692 28.2814 60.6282 29.0534 60.3712L31.7204 64.9902L44.7114 57.4902L45.2114 58.3572C46.1464 59.9762 47.6554 61.1342 49.4614 61.6182C50.0654 61.7802 50.6764 61.8602 51.2844 61.8602C52.1224 61.8602 52.9494 61.6982 53.7374 61.3992L56.7964 66.0052C57.7204 67.3312 58.6864 68.0032 59.6664 68.0032H73.9994V70.0032C73.9994 71.6572 75.3454 73.0032 76.9994 73.0032H79.9994C81.6534 73.0032 82.9994 71.6572 82.9994 70.0032V59.0002C82.9994 57.3462 81.6534 56.0002 79.9994 56.0002ZM54.3614 24.2042C55.1214 23.7652 55.9834 23.5342 56.8544 23.5342C58.6384 23.5342 60.3004 24.4922 61.1914 26.0342L63.1914 29.4982L25.6054 51.1982L16.1084 46.2892L54.3614 24.2042ZM21.9234 56.0202C21.0974 54.5892 20.9784 52.8732 21.5434 51.3512L24.8254 53.0482L28.0304 58.5992C25.7054 59.1842 23.1794 58.1942 21.9234 56.0202ZM26.9524 52.7302L64.1914 31.2302L67.1914 36.4262C68.5694 38.8132 67.7484 41.8782 65.3614 43.2562L32.4524 62.2562L26.9524 52.7302ZM49.9784 59.6852C48.6884 59.3392 47.6104 58.5122 46.9434 57.3562L46.4424 56.4892L56.8354 50.4892L57.3354 51.3562C58.0034 52.5122 58.1804 53.8592 57.8344 55.1492C57.4884 56.4392 56.6614 57.5172 55.5054 58.1852L53.7734 59.1852C52.6164 59.8522 51.2704 60.0292 49.9784 59.6852ZM59.6664 66.0002C59.5164 66.0002 59.0654 65.7622 58.4494 64.8772L55.5294 60.4802L56.5054 59.9172C56.9754 59.6462 57.3964 59.3242 57.7764 58.9692L60.3594 64.0002H73.9994V66.0002H59.6664ZM80.9994 70.0002C80.9994 70.5512 80.5514 71.0002 79.9994 71.0002H76.9994C76.4474 71.0002 75.9994 70.5512 75.9994 70.0002V59.0002C75.9994 58.4492 76.4474 58.0002 76.9994 58.0002H79.9994C80.5514 58.0002 80.9994 58.4492 80.9994 59.0002V70.0002Z" fill="white"/>
</svg>
