<svg width="52" height="66" viewBox="0 0 52 66" fill="none" xmlns="http://www.w3.org/2000/svg">
<g opacity="0.3">
<path d="M51 10.2048C41.943 10.2048 34.879 7.57178 26.615 1.11578L26 0.634766L25.385 1.11578C15.817 8.59078 11.487 10.2048 1 10.2048H0V34.8048C0 47.4918 9.34999 55.3988 25.498 64.7688L26 65.0608L26.502 64.7688C42.65 55.3978 52 47.4908 52 34.8048V10.2048H51ZM50 34.8048C50 46.4008 41.21 53.8708 26 62.7468C10.79 53.8708 2 46.4008 2 34.8048V12.1998C12.01 12.0918 16.813 10.2688 26.002 3.1698C33.987 9.2658 41.258 12.0028 50 12.1948V34.8048Z" fill="black"/>
<path d="M14.9998 30.995L13.6328 32.454L23.1668 41.393L38.3948 26.165L36.9808 24.751L23.1218 38.6089L14.9998 30.995Z" fill="black"/>
</g>
</svg>
