<svg width="74" height="57" viewBox="0 0 74 57" fill="none" xmlns="http://www.w3.org/2000/svg">
<g opacity="0.3">
<path d="M19.5818 25.917C19.1908 25.527 18.5578 25.528 18.1678 25.92L11.3538 32.76C11.1228 31.357 11.0008 29.932 11.0008 28.5C11.0008 14.164 22.6648 2.5 37.0008 2.5C44.1378 2.5 50.7927 5.333 55.7417 10.479C56.1247 10.877 56.7578 10.889 57.1558 10.506C57.5527 10.123 57.5658 9.49 57.1828 9.092C51.8548 3.551 44.6868 0.5 37.0008 0.5C21.5618 0.5 9.00075 13.061 9.00075 28.5C9.00075 29.904 9.11575 31.304 9.32275 32.685L2.58375 25.92C2.19375 25.528 1.55975 25.528 1.16975 25.917C0.777752 26.307 0.776752 26.94 1.16675 27.331L9.66675 35.865C9.85475 36.053 10.1088 36.159 10.3748 36.159C10.6408 36.159 10.8958 36.054 11.0828 35.865L19.5828 27.331C19.9738 26.939 19.9728 26.306 19.5818 25.917Z" fill="black"/>
<path d="M73.0989 34.4368L64.5989 25.9038C64.2239 25.5268 63.5579 25.5268 63.1829 25.9038L54.6829 34.4368C54.2919 34.8288 54.2939 35.4608 54.6849 35.8508C55.0779 36.2438 55.7099 36.2398 56.0989 35.8488L62.9899 28.9318C62.7569 43.0688 51.1919 54.4998 36.9999 54.4998C29.6459 54.4998 22.6029 51.3638 17.6769 45.8958C17.3059 45.4838 16.6759 45.4528 16.2639 45.8218C15.8539 46.1918 15.8209 46.8238 16.1909 47.2338C21.4959 53.1228 29.0809 56.4998 36.9999 56.4998C52.2299 56.4998 64.6499 44.2748 64.9839 29.1238L71.6819 35.8488C71.8769 36.0448 72.1329 36.1428 72.3899 36.1428C72.6449 36.1428 72.9009 36.0458 73.0959 35.8508C73.4869 35.4608 73.4889 34.8278 73.0989 34.4368Z" fill="black"/>
</g>
</svg>
