<svg width="205" height="53" viewBox="0 0 205 53" fill="none" xmlns="http://www.w3.org/2000/svg">
<path d="M60.3359 4.28711H71.1693V20.4224H60.3359V4.28711ZM63.7925 7.74509V16.9652H67.712V7.74509H63.7925Z" fill="black"/>
<path d="M75.2933 4.28711H84.0064V16.9652H85.3435V22.5434H81.8855V20.4224H75.708V22.5434H72.25V16.9652H73.587L75.2933 4.28711ZM76.952 16.9652H80.5477V7.74509H78.2194L76.952 16.9652Z" fill="black"/>
<path d="M94.8653 4.28687H98.3225V20.4222H94.8653V10.7874L90.301 20.4222H86.8438V7.74412V4.28613H90.301V13.9209L94.8653 4.28687Z" fill="black"/>
<path d="M100.629 4.28711H104.086V10.5576H108.006V4.28711H111.463V20.4224H108.006V14.0141H104.086V20.4224H100.629V7.74436V4.28711Z" fill="black"/>
<path d="M113.766 20.4222V7.74412V4.28613H117.223V16.9642H121.026V4.28613H124.483V16.9642H125.959V22.5424H122.501V20.4214H113.766V20.4222Z" fill="black"/>
<path d="M127.457 4.28711H138.29V20.4224H127.457V4.28711ZM130.914 7.74509V16.9652H134.834V7.74509H130.914Z" fill="black"/>
<path d="M140.598 4.28711H151.431V10.7415L149.425 12.3555L151.431 13.9687V20.4232H140.598V4.28711ZM147.974 7.74509H144.054V10.7415H146.728L147.973 9.5664V7.74509H147.974ZM144.055 13.9687V16.9652H147.974V15.1446L146.73 13.9695H144.055V13.9687Z" fill="black"/>
<path d="M153.734 4.28711H164.568V9.31217H161.11V7.74436H157.191V16.9644H161.11V15.3966H164.568V20.4217H153.734V4.28711Z" fill="black"/>
<path d="M170.102 14.0139V20.4222H166.645V7.74412V4.28613H170.102V10.5567H171.693L174.712 4.28613H178.354L174.459 12.0776L178.585 20.4222H174.782L171.694 14.0139H170.102Z" fill="black"/>
<path d="M187.756 4.28687H191.213V20.4222H187.756V10.7874L183.192 20.4222H179.734V7.74412V4.28613H183.192V13.9209L187.756 4.28687Z" fill="black"/>
<path d="M201.541 4.28732H204.998V20.4226H201.541V10.7879L196.977 20.4226H193.52V7.74456V4.28658H196.977V13.9213L201.541 4.28732ZM196.379 0H202.141V2.88141H196.379V0Z" fill="black"/>
<path d="M59.9336 31.8379H66.9558V41.3276H64.489V34.2533H62.4011V41.3276H59.9336V31.8379Z" fill="black"/>
<path d="M68.457 31.8379H75.5305V41.3276H68.457V31.8379ZM70.9245 34.2533V38.9121H73.0638V34.2533H70.9245Z" fill="black"/>
<path d="M83.5525 37.6708V41.328H81.085V37.6708H80.4982L78.9113 41.328H76.375L78.7216 36.4283L76.4959 31.8376H79.0146L80.4975 35.426H81.0843V34.2524V31.8369H83.5518V35.4253H84.1379L85.6214 31.8369H88.1402L85.9145 36.4275L88.2611 41.3273H85.7247L84.1371 37.67H83.5525V37.6708Z" fill="black"/>
<path d="M89.6932 31.8379H94.7659L95.9388 41.3276H93.5234L93.3336 39.274H91.1255L90.935 41.3276H88.5195L89.6932 31.8379ZM91.3665 36.8586H93.0918L92.8501 34.2526H91.6083L91.3665 36.8586Z" fill="black"/>
<path d="M96.957 31.8379H103.979V38.5846H99.4245V41.3276H96.957V31.8379ZM99.4245 34.2533V36.3413H101.512V34.2533H99.4245Z" fill="black"/>
<path d="M105.516 31.8379H107.984V35.3406H110.123V31.8379H112.59V41.3276H110.123V37.756H107.984V41.3276H105.516V34.2533V31.8379Z" fill="black"/>
<path d="M114.211 41.3276V34.2533V31.8379H116.678V34.9274H121.06V41.3276H114.211ZM116.678 39.0843H118.766V37.1699H116.678V39.0843ZM122.597 31.8379H125.063V41.3276H122.597V31.8379Z" fill="black"/>
<path d="M131.878 31.8379H134.345V41.3276H131.878V35.737L129.152 41.3276H126.684V34.2534V31.8379H129.152V37.4286L131.878 31.8379ZM128.529 28.9404H132.498V30.7522H128.529V28.9404Z" fill="black"/>
<path d="M140.328 41.3276V34.2533V31.8379H142.795V38.9121H144.763V31.8379H147.229V38.8608H148.092V42.7415H145.624V41.3276H140.328Z" fill="black"/>
<path d="M149.109 31.8379H155.7V34.0819H151.578V35.4615H153.63V37.7055H151.578V39.085H155.7V41.329H149.109V34.2548V31.8379Z" fill="black"/>
<path d="M157.082 31.8379H159.55V35.3406H161.69V31.8379H164.156V41.3276H161.69V37.756H159.55V41.3276H157.082V34.2533V31.8379Z" fill="black"/>
<path d="M165.223 31.8379H172.244V34.2533H169.968V41.3276H167.501V34.2533H165.223V31.8379H165.223Z" fill="black"/>
<path d="M173.316 31.8379H180.338V38.5846H175.783V41.3276H173.316V31.8379ZM175.783 34.2533V36.3413H177.871V34.2533H175.783Z" fill="black"/>
<path fill-rule="evenodd" clip-rule="evenodd" d="M0 2V48.0036H46V2H0ZM38 40H8V10H38V40Z" fill="#EA0000"/>
<path d="M51 42H40V53H51V42Z" fill="#EA0000"/>
<rect width="16" height="5" transform="matrix(-1 0 0 1 31 16)" fill="black"/>
<rect width="18" height="5" transform="matrix(-4.11401e-08 1 1 4.64434e-08 14 16)" fill="black"/>
<rect width="18" height="5" transform="matrix(-4.11401e-08 1 1 4.64434e-08 27 16)" fill="black"/>
</svg>
